<svg width="85" height="62" viewBox="0 0 85 62" fill="none" xmlns="http://www.w3.org/2000/svg">
<path d="M5.84155 7.65643C5.84155 6.79349 6.54111 6.09393 7.40405 6.09393H82.452C83.3149 6.09393 84.0145 6.79349 84.0145 7.65643V56.0624C84.0145 56.9254 83.3149 57.6249 82.452 57.6249H7.40405C6.54111 57.6249 5.84155 56.9254 5.84155 56.0624V7.65643Z" fill="black"/>
<path d="M1.98547 3.66583C1.98547 2.80288 2.68503 2.10333 3.54797 2.10333H78.5959C79.4588 2.10333 80.1584 2.80288 80.1584 3.66583V52.0718C80.1584 52.9348 79.4588 53.6343 78.5959 53.6343H3.54798C2.68503 53.6343 1.98547 52.9348 1.98547 52.0718V3.66583Z" fill="white"/>
<path fill-rule="evenodd" clip-rule="evenodd" d="M3.54797 0.540827H78.5959C80.3218 0.540827 81.7209 1.93994 81.7209 3.66583V52.0718C81.7209 53.7977 80.3218 55.1968 78.5959 55.1968H3.54798C1.82209 55.1968 0.422974 53.7977 0.422974 52.0718V3.66583C0.422974 1.93994 1.82208 0.540827 3.54797 0.540827ZM3.54797 2.10333C2.68503 2.10333 1.98547 2.80289 1.98547 3.66583V52.0718C1.98547 52.9348 2.68503 53.6343 3.54798 53.6343H78.5959C79.4588 53.6343 80.1584 52.9348 80.1584 52.0718V3.66583C80.1584 2.80288 79.4588 2.10333 78.5959 2.10333H3.54797Z" fill="black"/>
<path fill-rule="evenodd" clip-rule="evenodd" d="M13.9995 20.7126C13.9995 20.2811 14.3493 19.9313 14.7808 19.9313H67.3634C67.7949 19.9313 68.1447 20.2811 68.1447 20.7126C68.1447 21.1441 67.7949 21.4938 67.3634 21.4938H14.7808C14.3493 21.4938 13.9995 21.1441 13.9995 20.7126Z" fill="black"/>
<path fill-rule="evenodd" clip-rule="evenodd" d="M30.1247 11.9188C30.1247 11.4873 30.4745 11.1375 30.906 11.1375H49.8357C50.2672 11.1375 50.617 11.4873 50.617 11.9188C50.617 12.3503 50.2672 12.7 49.8357 12.7H30.906C30.4745 12.7 30.1247 12.3503 30.1247 11.9188Z" fill="black"/>
<path fill-rule="evenodd" clip-rule="evenodd" d="M13.9995 24.744C13.9995 24.3125 14.3493 23.9627 14.7808 23.9627H67.3634C67.7949 23.9627 68.1447 24.3125 68.1447 24.744C68.1447 25.1754 67.7949 25.5252 67.3634 25.5252H14.7808C14.3493 25.5252 13.9995 25.1754 13.9995 24.744Z" fill="black"/>
<path fill-rule="evenodd" clip-rule="evenodd" d="M13.9995 29.4913C13.9995 29.0599 14.3493 28.7101 14.7808 28.7101H67.3634C67.7949 28.7101 68.1447 29.0599 68.1447 29.4913C68.1447 29.9228 67.7949 30.2726 67.3634 30.2726H14.7808C14.3493 30.2726 13.9995 29.9228 13.9995 29.4913Z" fill="black"/>
<path fill-rule="evenodd" clip-rule="evenodd" d="M13.9995 34.2239C13.9995 33.7924 14.3493 33.4426 14.7808 33.4426H67.3634C67.7949 33.4426 68.1447 33.7924 68.1447 34.2239C68.1447 34.6553 67.7949 35.0051 67.3634 35.0051H14.7808C14.3493 35.0051 13.9995 34.6553 13.9995 34.2239Z" fill="black"/>
<path fill-rule="evenodd" clip-rule="evenodd" d="M13.9995 38.6054C13.9995 38.1739 14.3493 37.8242 14.7808 37.8242H39.3193C39.7508 37.8242 40.1006 38.1739 40.1006 38.6054C40.1006 39.0369 39.7508 39.3867 39.3193 39.3867H14.7808C14.3493 39.3867 13.9995 39.0369 13.9995 38.6054Z" fill="black"/>
<path d="M62.8857 44.6545H71.299V59.5529L67.0924 55.3463L62.8857 59.5529V44.6545Z" fill="white"/>
<path fill-rule="evenodd" clip-rule="evenodd" d="M61.3232 44.6545C61.3232 43.7915 62.0228 43.092 62.8857 43.092H71.299C72.1619 43.092 72.8615 43.7915 72.8615 44.6545V59.5529C72.8615 60.1849 72.4808 60.7546 71.8969 60.9964C71.313 61.2383 70.641 61.1046 70.1941 60.6577L67.0924 57.556L63.9906 60.6577C63.5437 61.1046 62.8717 61.2383 62.2878 60.9964C61.7039 60.7546 61.3232 60.1849 61.3232 59.5529V44.6545ZM67.0924 55.3463L71.299 59.5529V44.6545H62.8857V59.5529L67.0924 55.3463Z" fill="black"/>
<path d="M74.1991 45.1335C74.1991 48.9572 71.1386 52.0569 67.3633 52.0569C63.5881 52.0569 60.5276 48.9572 60.5276 45.1335C60.5276 41.3098 63.5881 38.2101 67.3633 38.2101C71.1386 38.2101 74.1991 41.3098 74.1991 45.1335Z" fill="white"/>
<path fill-rule="evenodd" clip-rule="evenodd" d="M75.7616 45.1335C75.7616 49.8013 72.0203 53.6194 67.3633 53.6194C62.7064 53.6194 58.9651 49.8013 58.9651 45.1335C58.9651 40.4657 62.7064 36.6476 67.3633 36.6476C72.0203 36.6476 75.7616 40.4657 75.7616 45.1335ZM67.3633 52.0569C71.1386 52.0569 74.1991 48.9572 74.1991 45.1335C74.1991 41.3098 71.1386 38.2101 67.3633 38.2101C63.5881 38.2101 60.5276 41.3098 60.5276 45.1335C60.5276 48.9572 63.5881 52.0569 67.3633 52.0569Z" fill="black"/>
<path fill-rule="evenodd" clip-rule="evenodd" d="M72.5766 45.1333C72.5766 48.0193 70.2615 50.3929 67.3638 50.3929C64.4662 50.3929 62.151 48.0193 62.151 45.1333C62.151 42.2473 64.4662 39.8737 67.3638 39.8737C70.2615 39.8737 72.5766 42.2473 72.5766 45.1333ZM67.3638 48.8304C69.3798 48.8304 71.0141 47.1751 71.0141 45.1333C71.0141 43.0914 69.3798 41.4362 67.3638 41.4362C65.3478 41.4362 63.7135 43.0914 63.7135 45.1333C63.7135 47.1751 65.3478 48.8304 67.3638 48.8304Z" fill="black"/>
</svg>
