<svg width="76" height="60" viewBox="0 0 76 60" fill="none" xmlns="http://www.w3.org/2000/svg">
<path d="M2.02185 34.8933C2.02185 32.5587 2.66097 31.3434 3.87624 30.416L41.2303 45.8307C39.3434 51.5873 40.9155 56.7808 42.7973 58.2393L4.64427 40.8097C3.5622 39.9629 2.02185 37.8675 2.02185 34.8933Z" fill="white"/>
<path fill-rule="evenodd" clip-rule="evenodd" d="M3.00415 29.2732C3.4108 28.9629 3.95173 28.892 4.42459 29.0872L41.7786 44.5019C42.4741 44.7889 42.8306 45.5635 42.5963 46.2784C41.7287 48.9252 41.6639 51.4219 42.0157 53.3944C42.3813 55.4445 43.1461 56.6909 43.6779 57.103C44.2548 57.5501 44.4051 58.3586 44.0274 58.9831C43.6497 59.6077 42.8639 59.85 42.2 59.5468L4.04696 42.1172C3.94419 42.0703 3.84731 42.0114 3.75833 41.9418C2.37259 40.8573 0.584351 38.3631 0.584351 34.8933C0.584351 33.6025 0.759829 32.5016 1.1766 31.5502C1.60288 30.577 2.2389 29.8572 3.00415 29.2732ZM4.64427 40.8097C3.5622 39.9629 2.02185 37.8675 2.02185 34.8933C2.02185 32.5587 2.66097 31.3434 3.87624 30.416L41.2303 45.8307C39.9189 49.8316 40.2783 53.5605 41.2513 55.9526C41.6783 57.0022 42.2234 57.7944 42.7973 58.2392L4.64427 40.8097Z" fill="black"/>
<path d="M73.9782 15.7338L37.8463 1.76089L3.69031 30.5535L42.9273 47.0669L73.9782 15.7338Z" fill="black"/>
<path fill-rule="evenodd" clip-rule="evenodd" d="M36.9198 0.661797C37.3212 0.323426 37.8751 0.23079 38.3648 0.420148L74.4967 14.393C74.949 14.568 75.2827 14.9592 75.384 15.4335C75.4853 15.9078 75.3407 16.4011 74.9993 16.7456L43.9484 48.0788C43.5354 48.4955 42.9105 48.6195 42.3697 48.3919L3.13271 31.8785C2.67154 31.6844 2.34447 31.2644 2.26919 30.7698C2.19392 30.2751 2.38127 29.7769 2.76383 29.4544L36.9198 0.661797ZM37.8463 1.76089L73.9782 15.7338L42.9273 47.0669L3.69033 30.5535L37.8463 1.76089Z" fill="black"/>
<path d="M53.319 19.0148L37.5205 12.8105L34.4878 15.4126L50.1529 21.973L53.319 19.0148Z" fill="white"/>
<path d="M73.9466 26.4501C70.4927 23.6358 71.1323 19.1265 73.7867 15.8005L41.4858 46.3101C39.5032 51.0753 41.1121 55.6824 42.8293 58.223L73.9466 26.4501Z" fill="white"/>
<path fill-rule="evenodd" clip-rule="evenodd" d="M74.76 14.7426C75.3155 15.2536 75.3811 16.1072 74.9103 16.6972C73.733 18.1723 73.061 19.8411 73.0129 21.3626C72.9662 22.8356 73.4948 24.2276 74.8547 25.3357C75.1679 25.5909 75.3592 25.9661 75.3819 26.3695C75.4045 26.7729 75.2564 27.1672 74.9737 27.4559L43.8564 59.2288C43.5543 59.5372 43.1297 59.6935 42.6997 59.6546C42.2698 59.6157 41.8801 59.3856 41.6384 59.028C39.7506 56.235 37.9306 51.1128 40.1587 45.7579C40.2362 45.5716 40.3521 45.4037 40.4988 45.2651L72.7997 14.7554C73.3484 14.2372 74.2045 14.2315 74.76 14.7426ZM73.7867 15.8005L41.4859 46.3101C39.8018 50.3576 40.709 54.2912 42.0728 56.941C42.3146 57.4109 42.5707 57.8404 42.8294 58.223L73.9466 26.4501C73.592 26.1611 73.2806 25.8543 73.01 25.5328C71.5746 23.8268 71.2904 21.7055 71.8214 19.6342C72.1653 18.2933 72.8507 16.9733 73.7867 15.8005Z" fill="black"/>
<path fill-rule="evenodd" clip-rule="evenodd" d="M71.9366 26.0783C72.2127 26.3636 72.2053 26.8186 71.92 27.0947L49.9173 48.3939C49.6321 48.67 49.177 48.6626 48.9009 48.3773C48.6248 48.0921 48.6322 47.6371 48.9174 47.361L70.9202 26.0618C71.2054 25.7857 71.6605 25.7931 71.9366 26.0783Z" fill="black"/>
<path fill-rule="evenodd" clip-rule="evenodd" d="M70.6677 24.2985C70.9377 24.5894 70.9207 25.0442 70.6298 25.3142L56.4303 38.4903C56.1393 38.7603 55.6846 38.7433 55.4145 38.4523C55.1445 38.1613 55.1615 37.7066 55.4525 37.4366L69.652 24.2605C69.943 23.9905 70.3977 24.0075 70.6677 24.2985Z" fill="black"/>
<path fill-rule="evenodd" clip-rule="evenodd" d="M9.79775 38.8895C9.95321 38.5242 10.3753 38.3542 10.7406 38.5096L24.434 44.3379C24.7993 44.4934 24.9693 44.9155 24.8139 45.2807C24.6584 45.646 24.2363 45.8161 23.871 45.6606L10.1776 39.8323C9.81235 39.6768 9.64229 39.2547 9.79775 38.8895Z" fill="black"/>
</svg>
