<svg width="65" height="92" viewBox="0 0 65 92" fill="none" xmlns="http://www.w3.org/2000/svg">
<path fill-rule="evenodd" clip-rule="evenodd" d="M32.5281 67.4355C33.5205 67.4355 34.325 68.24 34.325 69.2324V84.9091C34.325 85.9015 33.5205 86.706 32.5281 86.706C31.5357 86.706 30.7312 85.9015 30.7312 84.9091V69.2324C30.7312 68.24 31.5357 67.4355 32.5281 67.4355Z" fill="black"/>
<path fill-rule="evenodd" clip-rule="evenodd" d="M33.642 2.51929C33.7633 3.50424 33.0632 4.40101 32.0782 4.5223C29.4085 4.85105 26.7356 5.53147 24.1192 6.59056C8.05416 13.0935 0.3026 31.3885 6.80558 47.4535C13.3086 63.5186 31.6036 71.2701 47.6686 64.7672C50.5373 63.6059 53.1384 62.0703 55.44 60.2404C56.2168 59.6228 57.3471 59.7518 57.9647 60.5286C58.5823 61.3054 58.4533 62.4358 57.6765 63.0534C55.1081 65.0954 52.2085 66.8065 49.017 68.0983C31.1122 75.346 10.7221 66.7068 3.4744 48.802C-3.7733 30.8972 4.86597 10.5071 22.7708 3.25937C25.6812 2.08125 28.66 1.32232 31.639 0.955489C32.624 0.834204 33.5207 1.53434 33.642 2.51929Z" fill="black"/>
<path fill-rule="evenodd" clip-rule="evenodd" d="M20.798 1.80218C21.6833 1.35375 22.7645 1.70789 23.213 2.59319L55.3323 66.0032C55.7808 66.8885 55.4266 67.9697 54.5413 68.4181C53.656 68.8665 52.5748 68.5124 52.1264 67.6271L20.007 4.2171C19.5586 3.33181 19.9128 2.25061 20.798 1.80218Z" fill="black"/>
<path d="M62.293 36.3911C62.293 51.0373 50.4199 62.9104 35.7737 62.9104C21.1275 62.9104 9.25439 51.0373 9.25439 36.3911C9.25439 21.7449 21.1275 9.87181 35.7737 9.87181C50.4199 9.87181 62.293 21.7449 62.293 36.3911Z" fill="white"/>
<path fill-rule="evenodd" clip-rule="evenodd" d="M64.0898 36.3911C64.0898 52.0297 51.4123 64.7073 35.7737 64.7073C20.1351 64.7073 7.45752 52.0297 7.45752 36.3911C7.45752 20.7525 20.1351 8.07494 35.7737 8.07494C51.4123 8.07494 64.0898 20.7525 64.0898 36.3911ZM35.7737 62.9104C50.4199 62.9104 62.293 51.0373 62.293 36.3911C62.293 21.7449 50.4199 9.87181 35.7737 9.87181C21.1275 9.87181 9.25439 21.7449 9.25439 36.3911C9.25439 51.0373 21.1275 62.9104 35.7737 62.9104Z" fill="black"/>
<path fill-rule="evenodd" clip-rule="evenodd" d="M27.3654 20.2925C27.6253 19.998 28.0464 19.9064 28.4052 20.0664L35.8701 23.397C35.8821 23.4023 35.8941 23.408 35.9058 23.4139L39.8106 25.3662C40.2017 25.5618 40.3952 26.0106 40.269 26.4292L38.0869 33.6645C37.9725 34.0439 37.623 34.3035 37.2267 34.3035H33.2401L33.5569 36.1408L37.6367 38.233C37.8833 38.3595 38.0577 38.5926 38.1094 38.8649C38.1611 39.1371 38.0843 39.418 37.9012 39.626L33.072 45.1138V48.3349C33.072 48.5965 32.958 48.8451 32.7598 49.0158L28.6254 52.576C28.3103 52.8473 27.8502 52.867 27.5131 52.6235L23.407 49.658L18.7283 46.8051C18.5373 46.6887 18.3966 46.5051 18.3338 46.2904L16.9556 41.5818C16.8937 41.3701 16.9117 41.1431 17.0063 40.9439L19.0156 36.7139L16.9902 31.917C16.8862 31.6707 16.8973 31.3908 17.0205 31.1535L20.1213 25.1816C20.1403 25.145 20.1618 25.1099 20.1855 25.0763L22.1379 22.32C22.3064 22.0822 22.5797 21.9409 22.8711 21.9409H25.911L27.3654 20.2925ZM28.276 21.9764L26.9901 23.4337C26.8196 23.627 26.5742 23.7377 26.3164 23.7377H23.3357L21.6876 26.0645L18.8097 31.6069L20.8276 36.3861C20.9273 36.6222 20.9214 36.8896 20.8115 37.1211L18.7763 41.4056L19.9606 45.452L24.3724 48.1421C24.3923 48.1542 24.4118 48.1672 24.4307 48.1808L27.9902 50.7516L31.2751 47.923V44.7747C31.2751 44.5562 31.3547 44.3452 31.4991 44.1812L35.7899 39.3053L32.3378 37.535C32.0865 37.4061 31.9104 37.1666 31.8624 36.8882L31.2882 33.5577C31.2431 33.2966 31.3157 33.0289 31.4864 32.8263C31.6571 32.6236 31.9086 32.5066 32.1735 32.5066H36.5593L38.3301 26.635L35.1199 25.0299L28.276 21.9764Z" fill="black"/>
<path fill-rule="evenodd" clip-rule="evenodd" d="M56.2548 30.9194C56.5303 31.0805 56.6997 31.3757 56.6997 31.6949V38.0485C56.6997 38.1774 56.6719 38.3048 56.6183 38.422L54.4897 43.0784V47.5789C54.4897 47.9192 54.2975 48.2303 53.9931 48.3825L47.6395 51.5592C47.3883 51.6848 47.0928 51.6857 46.8408 51.5617C46.5889 51.4376 46.4094 51.2028 46.3558 50.9271L45.389 45.9548C45.3563 45.7869 45.3723 45.6131 45.435 45.454L47.1347 41.1393L46.3557 37.1142C46.3153 36.9058 46.3501 36.6898 46.4538 36.5045L48.3875 33.0515C48.527 32.8024 48.7767 32.6344 49.06 32.599L53.3047 32.0684L55.3608 30.9119C55.639 30.7554 55.9793 30.7582 56.2548 30.9194ZM54.9028 33.2311L54.0318 33.7211C53.9302 33.7782 53.8184 33.815 53.7027 33.8295L49.7334 34.3257L48.1823 37.0956L48.9485 41.0546C48.981 41.2222 48.965 41.3957 48.9024 41.5546L47.2028 45.8689L47.8939 49.4231L52.6929 47.0236V42.8827C52.6929 42.7538 52.7206 42.6264 52.7742 42.5092L54.9028 37.8529V33.2311Z" fill="black"/>
<path d="M32.2674 79.3712C23.7983 79.3712 16.9327 82.7807 16.9327 86.9864H47.6021C47.6021 82.7807 40.7365 79.3712 32.2674 79.3712Z" fill="white"/>
<path fill-rule="evenodd" clip-rule="evenodd" d="M16.9327 88.7833C15.9404 88.7833 15.1359 87.9788 15.1359 86.9864C15.1359 83.8298 17.6635 81.463 20.625 79.9923C23.6974 78.4666 27.8161 77.5744 32.2674 77.5744C36.7187 77.5744 40.8374 78.4666 43.9099 79.9923C46.8713 81.463 49.399 83.8298 49.399 86.9864C49.399 87.9788 48.5945 88.7833 47.6021 88.7833H16.9327ZM47.1727 85.1896C45.5465 81.851 39.4901 79.3712 32.2674 79.3712C25.0448 79.3712 18.9884 81.851 17.3621 85.1896C17.0815 85.7657 16.9327 86.3674 16.9327 86.9864H47.6021C47.6021 86.3674 47.4534 85.7657 47.1727 85.1896Z" fill="black"/>
<path d="M12.7076 88.7456C12.7076 88.2703 13.093 87.885 13.5683 87.885H51.4877C51.963 87.885 52.3483 88.2703 52.3483 88.7456C52.3483 89.2209 51.963 89.6062 51.4877 89.6062H13.5683C13.093 89.6062 12.7076 89.2209 12.7076 88.7456Z" fill="black"/>
<path fill-rule="evenodd" clip-rule="evenodd" d="M51.4877 89.6062C51.963 89.6062 52.3483 89.2209 52.3483 88.7456C52.3483 88.2703 51.963 87.885 51.4877 87.885H13.5683C13.093 87.885 12.7076 88.2703 12.7076 88.7456C12.7076 89.2209 13.093 89.6062 13.5683 89.6062H51.4877ZM13.5683 86.0881H51.4877C52.9554 86.0881 54.1452 87.2779 54.1452 88.7456C54.1452 90.2133 52.9554 91.4031 51.4877 91.4031H13.5683C12.1006 91.4031 10.9108 90.2133 10.9108 88.7456C10.9108 87.2779 12.1006 86.0881 13.5683 86.0881Z" fill="black"/>
</svg>
